<?xml version="1.0" encoding="UTF-8" standalone="no"?>
<!-- Created with Inkscape (http://www.inkscape.org/) -->

<svg
   xmlns:dc="http://purl.org/dc/elements/1.1/"
   xmlns:cc="http://creativecommons.org/ns#"
   xmlns:rdf="http://www.w3.org/1999/02/22-rdf-syntax-ns#"
   xmlns:svg="http://www.w3.org/2000/svg"
   xmlns="http://www.w3.org/2000/svg"
   xmlns:sodipodi="http://sodipodi.sourceforge.net/DTD/sodipodi-0.dtd"
   xmlns:inkscape="http://www.inkscape.org/namespaces/inkscape"
   width="106.89mm"
   height="32.681999mm"
   viewBox="0 0 106.89 32.681999"
   version="1.1"
   id="svg8"
   inkscape:version="0.92.2 (5c3e80d, 2017-08-06)"
   sodipodi:docname="kurz-logo.svg">
  <defs
     id="defs2" />
  <sodipodi:namedview
     id="base"
     pagecolor="#ffffff"
     bordercolor="#666666"
     borderopacity="1.0"
     inkscape:pageopacity="0.0"
     inkscape:pageshadow="2"
     inkscape:zoom="0.98994952"
     inkscape:cx="100.13576"
     inkscape:cy="-86.852016"
     inkscape:document-units="mm"
     inkscape:current-layer="g823"
     showgrid="false"
     inkscape:window-width="1366"
     inkscape:window-height="705"
     inkscape:window-x="-8"
     inkscape:window-y="-8"
     inkscape:window-maximized="1" />
  <metadata
     id="metadata5">
    <rdf:RDF>
      <cc:Work
         rdf:about="">
        <dc:format>image/svg+xml</dc:format>
        <dc:type
           rdf:resource="http://purl.org/dc/dcmitype/StillImage" />
        <dc:title></dc:title>
      </cc:Work>
    </rdf:RDF>
  </metadata>
  <g
     inkscape:label="Layer 1"
     inkscape:groupmode="layer"
     id="layer1"
     transform="translate(0,-264.318)">
    <g
       id="g822">
      <g
         transform="translate(444.73661,-49.155992)"
         id="g45">
        <g
           id="g823"
           transform="translate(-1.2264912,263.65561)">
          <path
             inkscape:export-ydpi="96"
             inkscape:export-xdpi="96"
             sodipodi:nodetypes="cccccccccccccccc"
             inkscape:connector-curvature="0"
             id="path927-6"
             d="m -405.72666,80.840014 c -1.35637,-0.20346 -3.26371,-0.65474 -4.23865,-1.00212 -3.03168,-2.29478 -3.24837,-6.36264 -3.65336,-9.44949 -0.16551,-1.90585 -0.42637,-3.68713 -0.57982,-3.95856 -1.03029,-2.94615 -1.60922,-6.22001 -1.54543,-8.99876 0.003,-1.89004 2.57178,-4.06851 4.39188,-3.72426 2.85522,1.16239 2.34829,2.85364 2.35421,4.75971 0.022,6.96662 0.31566,9.55922 1.4914,12.95222 0.95027,2.74023 1.19327,3.16477 2.06891,3.61086 1.77955,0.90687 4.1103,-0.24134 5.4818,-2.70073 3.41913,-5.22126 5.05455,-10.57195 2.6188,-16.22445 -0.12496,-1.72827 -0.0548,-2.55571 0.274,-3.15471 4.01594,-3.42438 5.37636,-0.92743 6.15434,0.0649 1.38157,8.75441 -1.83041,21.11326 -8.394,26.24729 -2.26007,2.36525 -4.08598,1.92198 -6.42254,1.57665 z"
             style="fill:#303030;stroke-width:0.29979566;fill-opacity:1" />
          <path
             style="fill:#303030;stroke-width:0.22734016;fill-opacity:1"
             d="m -374.86372,51.566464 c -0.45225,-0.005 -0.92731,0.0514 -1.42885,0.17932 -2.99644,0.47687 -5.07252,1.66873 -6.28436,4.64054 -1.28585,4.05942 -0.98213,8.5383 -1.81229,13.13873 -0.59552,3.41011 -0.61614,6.306 -1.38753,9.96425 1.28461,0.8798 2.8893,1.76642 5.17798,0.92449 1.15276,-4.16922 -0.91895,-9.12247 2.6815,-13.42243 0.54829,0.39791 3.49879,4.408 4.44624,6.04252 2.03129,2.7414 3.85175,7.37395 7.56904,7.57887 2.78149,-0.76565 2.80043,-2.95447 1.30638,-5.61568 -2.41557,-1.46569 -6.95513,-6.94893 -6.95513,-8.40104 0,-0.63378 0.58341,-1.17414 1.6211,-1.50378 2.5667,-0.81543 2.85306,-1.27611 2.85306,-4.59817 -0.12046,-1.357 -0.36399,-3.41283 -1.72651,-5.2281 -1.82981,-1.87161 -3.61836,-3.67375 -6.06063,-3.69952 z m -0.81079,3.85971 c 2.35657,0.3331 3.13648,1.18886 3.8685,3.26595 0.0902,0.12362 0.18526,0.52928 0.2191,0.90124 0.0666,0.82322 -0.62417,1.39912 -2.34764,1.95595 v -0.003 c -1.51503,0.49335 -3.7296,1.37031 -5.29064,0.0667 -0.35348,-2.85633 0.67567,-4.91846 3.55018,-6.1867 z"
             id="path1033-8-1"
             inkscape:connector-curvature="0" />
          <path
             inkscape:export-ydpi="96"
             inkscape:export-xdpi="96"
             sodipodi:nodetypes="cccccccccccccccccccc"
             inkscape:connector-curvature="0"
             id="path927-6-8"
             d="m -351.34944,81.868974 c -1.49704,-0.34165 -2.21157,-0.68932 -3.2593,-1.58453 -2.43791,-2.72029 -0.87319,-6.08699 0.15469,-8.48915 0.66863,-1.25152 2.02004,-3.43282 3.00253,-4.84723 2.24139,-3.73748 5.34386,-7.48471 7.08068,-10.96406 0.0814,-0.72348 -0.002,-0.82195 -0.75921,-0.90335 -4.86361,-0.15273 -8.92587,2.23074 -13.42585,3.05008 -0.32567,-0.11857 -0.39386,-0.38184 -0.26054,-1.01006 0.17607,-0.831 1.94107,-3.70714 2.77111,-4.51513 4.15925,-2.79243 8.52958,-2.98787 13.33965,-2.29534 1.91746,0.26829 3.61183,1.01649 5.06145,1.97149 1.03898,0.69132 1.21188,1.30437 0.85487,3.03108 -0.21167,1.02212 -0.61062,1.55549 -2.4775,3.31224 -3.92731,4.23086 -7.94511,9.04553 -10.50626,13.83397 -1.01567,1.95059 -1.08162,3.30209 -0.1954,3.99734 3.69274,0.31451 7.31007,-0.65716 10.7382,-0.22106 1.53256,1.27423 1.21086,2.50163 1.26297,3.52827 -0.60248,1.5992 -1.20832,2.08011 -2.61814,2.08011 -3.47556,0.5597 -7.25684,0.75966 -10.76304,0.0301 z"
             style="fill:#303030;stroke-width:0.27836555;fill-opacity:1" />
          <path
             inkscape:export-ydpi="96"
             inkscape:export-xdpi="96"
             sodipodi:nodetypes="ccccccccccccccccccc"
             inkscape:connector-curvature="0"
             id="path927-6-2"
             d="m -426.2505,81.592424 c -0.80954,-3.32103 -2.20546,-6.0278 -3.83108,-9.03238 -3.38251,1.40879 -5.77842,6.7657 -8.64592,9.36932 -0.91477,0 -1.78951,-0.32571 -2.38302,-0.88728 -0.67588,-0.63925 -1.2762,-3.27741 -1.31905,-5.79512 -0.19433,-4.14812 -0.66735,-8.51657 -0.783,-12.35574 -0.41898,-3.68886 -0.41708,-6.98873 0.14409,-10.54534 0,-1.51624 1.57917,-2.92531 2.71745,-2.42467 1.62817,0.716 1.90393,2.29448 1.35735,7.77025 0.0569,4.40336 -0.0758,9.0481 0.8939,12.95541 0.0474,0.77965 0.5242,1.4481 1.04263,1.4481 2.81499,-3.21817 5.63813,-6.97591 8.18865,-10.08813 2.64284,-3.02312 4.9449,-6.52244 6.79337,-9.62306 1.26882,-1.05837 2.76153,-0.57654 3.68614,-0.44831 3.25436,4.23788 -4.21073,9.46618 -6.26016,12.08966 -1.3928,1.45549 -2.42008,3.80716 -2.15286,4.92795 1.81549,2.5777 3.63648,5.12358 4.77039,7.92253 1.11847,2.18385 1.08549,2.95723 -0.17347,4.06885 -0.73353,0.73404 -4.17614,2.70065 -4.04541,0.64796 z"
             style="fill:#303030;stroke-width:0.25928226;fill-opacity:1" />
        </g>
      </g>
    </g>
  </g>
</svg>
